<?xml version='1.0' encoding='utf-8'?>
<svg xmlns="http://www.w3.org/2000/svg" version="1.1" width="600px" height="976px" viewBox="0 0 600 976"> <g id="layer1"> <g> <g style="fill:rgb(0,0,0); fill-opacity:1.0; stroke-linejoin: miter"> <path d="M259.33768,314.54724C268.5885,315.24213,278.29532,317.3051,287.8936,320.58417C290.2823,321.38763,290.56458,321.43103,293.97394,321.5614C308.95764,322.1477,325.35287,325.60046,339.03366,331.05103C343.7242,332.91858,351.9544,337.04456,356.1455,339.6504C370.21716,348.38,381.24866,359.6504,389.63083,373.80896C390.9989,376.13245,394.53854,383.03802,395.14658,384.60156L395.4289,385.2964L397.49185,383.4723C401.63953,379.8241,404.9837,378.93378,408.3279,380.56244C409.4571,381.10535,411.2378,382.82086,412.25842,384.36267L413.01846,385.51355L414.4517,385.64392C422.48642,386.3822,426.0478,387.98914,427.85016,391.6808C428.5885,393.2226,429.0445,395.19873,429.0445,396.9359L429.0445,397.8263L430.93378,398.43433C436.6884,400.30188,439.85886,403.19006,440.98804,407.59827C441.35724,408.94464,441.42236,409.90015,441.40063,412.09338L441.35724,414.85126L443.7242,417.3051C445.04886,418.62976,446.43866,420.21497,446.82953,420.7796C449.67426,424.92725,450.0,429.5744,447.71985,433.1792C446.7644,434.67755,444.81,436.67535,443.13788,437.84802L441.68295,438.86865L443.09448,440.04126C446.85126,443.16833,448.80566,446.46906,448.80566,449.63953C448.78394,452.78827,446.5255,455.3073,441.79153,457.4137C440.2063,458.10858,440.09772,458.21716,440.22803,458.7166C440.29315,459.02063,440.42346,460.62756,440.4886,462.29968C440.6189,465.90448,440.31488,467.5114,439.09882,469.83496C437.10098,473.6352,433.25732,476.19763,427.65472,477.4137C426.56894,477.6526,425.41803,477.91315,425.114,478.0C424.5494,478.15204,424.74484,478.3909,429.7394,483.79807C438.94678,493.8089,441.72638,496.91425,442.76874,498.47775C443.55048,499.62866,444.04993,500.75787,444.87512,503.2986C447.7633,512.2671,448.02386,518.73834,445.6786,524.51465C445.37457,525.2747,444.50598,526.9034,443.78937,528.1412C443.05103,529.37897,442.2693,530.9642,442.05212,531.7025C440.72748,535.937,440.3583,540.6493,441.09662,543.4072C441.35724,544.3844,441.4441,545.253,441.35724,546.2302C441.1835,548.3149,439.40283,555.2856,437.8176,560.10645C436.0152,565.5353,434.23453,569.24866,431.36807,573.43976C430.1303,575.2422,428.69708,577.544,428.1759,578.5429C424.35394,585.75244,418.33875,589.76984,410.152,590.5733C406.50378,590.9208,402.11725,590.42126,397.92615,589.2052L396.44952,588.77094L394.51685,590.59503C388.37134,596.4365,380.42346,599.2595,369.08795,599.58527C361.68295,599.8024,354.08252,598.8904,344.37567,596.5885C342.89902,596.2411,341.63953,596.0022,341.57437,596.0673C341.37894,596.2628,342.13898,600.75793,342.98587,604.42786C344.31055,610.24756,346.04776,615.39417,348.43646,620.51904L349.3051,622.36487L352.10638,624.3627C363.35504,632.39746,375.16827,643.6244,387.5244,658.0652L390.5863,661.6482L322.70358,661.7134C285.37457,661.7351,254.7774,661.7134,254.73398,661.6699C254.69055,661.6265,255.29858,660.1499,256.10205,658.3692C259.42453,650.9425,260.2063,647.62,260.74918,638.78174C261.63953,624.51465,257.90445,611.3551,250.86859,603.77637C250.26056,603.1249,249.45709,602.1911,249.08795,601.7134C247.58957,599.759,231.9544,576.39307,231.02063,574.6993C229.89142,572.6363,228.78394,571.4419,227.45929,570.79047C225.9826,570.07385,223.42017,569.5093,220.44516,569.2269C216.86209,568.90125,202.92072,569.0967,195.49402,569.5744C186.41693,570.18243,183.35504,569.8567,179.18567,567.83716C174.73395,565.6873,171.67206,562.23456,170.23883,557.73944C169.13135,554.2432,168.93591,551.5071,169.56567,547.7503C170.4126,542.64716,170.1737,539.19434,168.74048,536.37134C167.8067,534.5255,167.06842,533.5918,164.76654,531.3334C163.13788,529.7481,162.39954,528.83606,161.90009,527.8154C160.70575,525.405,161.0315,523.3855,162.94244,521.2573C163.68079,520.4321,163.70251,520.38873,163.37677,519.7807C162.89899,518.8469,160.96631,516.80566,159.48969,515.67645C157.20953,513.9175,157.1878,512.7449,159.40283,509.59613C161.98694,505.88275,162.70355,503.4289,161.74811,501.38763C161.22693,500.25842,160.05426,499.02063,156.8404,496.21936C153.01843,492.89685,150.0,488.8578,150.0,487.0554C150.0,486.25192,150.84692,485.3833,153.25732,483.68948C154.14764,483.03802,155.38544,482.1477,155.99347,481.69165C157.05756,480.9099,162.68188,474.873,166.72095,470.22586C168.80566,467.81543,172.14984,463.45062,172.14984,463.1466C172.14984,463.0163,171.34637,461.9088,170.39087,460.67102C167.85016,457.4137,166.56891,455.43762,165.52661,453.20087C164.70142,451.46362,163.72418,448.1629,163.96307,447.94574C164.00653,447.8806,164.87512,448.7492,165.8523,449.8567C168.97937,453.33118,170.47772,454.24323,173.3659,454.5255L174.73395,454.65582L174.69055,444.03693C174.66882,435.22046,174.71228,432.87512,175.03796,430.13898C176.16718,420.12817,178.44733,412.96204,182.39954,406.7948C182.96417,405.88275,184.37567,403.08142,185.52661,400.60583C188.71875,393.5918,191.12921,389.3789,193.3659,386.86L194.21283,385.90448L192.12811,381.75684C185.61346,368.7926,184.76654,356.5885,189.67426,346.77307C191.47662,343.19006,193.58307,340.4756,196.88379,337.45715C199.2508,335.28558,201.14008,333.96094,205.17914,331.55054C207.13354,330.37787,209.28339,328.9663,209.93484,328.40173C218.44733,321.17047,230.15201,316.39307,243.1596,314.85126C246.67752,314.43866,255.71118,314.26495,259.33768,314.54724 Z"/> </g> </g> <g style="fill:rgb(0,0,0); fill-opacity:1.0; stroke-linejoin: miter"> <path d="M228.60725,287.55963C228.6119,287.5597,228.61708,287.5597,228.62257,287.5608L228.59383,287.56073C228.59822,287.55963,228.60262,287.55963,228.60725,287.55963 Z"/> </g> <g style="fill:rgb(0,0,0); fill-opacity:1.0; stroke-linejoin: miter"> <path d="M151.44656,60.638004L153.78687,65.226776C162.64389,82.97745,174.24857,103.81292,178.31107,109.22729C186.54797,120.17462,188.79764,124.058784,191.4274,131.81404C193.69485,138.32822,197.75275,143.85872,212.17511,159.71617C219.13287,167.40103,225.51315,174.88837,226.3334,176.38052C227.48022,178.52751,228.07446,181.35614,229.11743,189.34409C230.88489,202.9117,230.52747,210.84679,228.02539,212.09679C227.4892,212.36902,227.05426,213.05383,227.03448,213.57869C226.89459,215.73586,223.7099,222.68867,222.263,223.861L220.75534,225.09033L222.63977,226.27142C225.08981,227.9419,253.15256,243.2034,267.99585,251.01003C311.49402,273.86673,315.43546,276.2954,334.26147,291.61652C348.55286,303.2023,349.91986,305.70877,346.23053,313.63574C344.32336,317.71304,343.09467,319.30295,331.31982,332.4172C327.7386,336.3745,324.6731,339.82202,323.37592,341.30908L323.33673,341.30765L318.37518,343.09186L318.37518,343.09186L318.36176,343.0876L318.3225,343.08615C320.08618,340.92285,322.37698,337.2322,325.98083,331.39835C336.49622,314.49527,336.12408,315.06497,335.277,314.2737C335.24356,314.244,335.20212,314.22754,335.15366,314.22577C334.22736,314.1908,330.5976,319.3769,323.72897,330.67026C318.20508,339.70294,316.62903,341.9845,315.7963,341.95313C315.76544,341.95193,315.73535,341.94724,315.70587,341.9411C315.24347,341.80612,314.911,341.3261,315.04523,340.86374C315.17957,340.40134,319.2263,333.8322,324.0152,326.1806C332.2233,313.10736,332.6648,312.24716,331.70142,311.4502C331.1211,311.04987,330.63873,310.7039,330.52234,310.6995C330.51343,310.6992,330.50665,310.6989,330.50208,310.7037C330.44153,310.75955,327.8297,314.9278,324.71796,319.95407C313.58832,337.6526,312.22723,339.6456,311.2936,339.61035C310.71002,339.5883,310.48944,339.23126,310.69098,338.5364C310.88617,338.01816,314.998,331.27588,319.78674,323.6255C324.63422,315.97598,328.6183,309.52322,328.62708,309.28867C328.64227,308.88605,327.3243,308.1289,326.8034,308.10925C326.72034,308.10614,326.65735,308.12234,326.62366,308.16183C326.56097,308.27582,325.69336,309.58743,324.7561,311.18823C319.03,320.44073,309.21445,335.85138,308.4853,336.58325C308.18124,336.897,307.91956,337.04916,307.67004,337.03973C307.46997,337.03223,307.27795,336.92105,307.0782,336.70575C306.62872,336.22122,307.45337,334.49875,310.06116,330.44775C322.05612,311.4957,324.05142,308.18112,324.21,307.07645C324.32413,306.23975,324.22205,305.82285,323.9198,305.81146C323.15228,305.78247,321.0937,308.37128,318.01263,313.33054C307.07123,330.6849,304.72137,334.10376,303.9628,334.0751C302.50366,334.02005,303.1488,332.40823,307.18274,326.19C322.20187,302.74634,321.77017,303.59323,319.63327,302.98944L319.59402,302.98798C318.99146,303.1013,315.15204,308.56882,309.75055,316.9926C304.72137,324.80963,300.2683,331.3052,299.8529,331.46524C299.8167,331.47495,299.78162,331.47726,299.7483,331.47604C299.0218,331.44864,298.984,329.11722,299.79456,328.36487C300.40262,327.746,314.62866,305.4288,316.1978,302.56546C317.13693,300.9066,317.1435,300.73242,316.27924,300.40677C316.0525,300.29553,315.80164,300.24033,315.57074,300.2316C315.27527,300.22046,315.0125,300.28595,314.87634,300.41196C314.63403,300.6378,312.02655,304.6887,309.04224,309.42673C298.41272,326.26846,296.8656,328.5463,296.04828,328.5155C295.58154,328.49786,295.18408,328.19095,295.19727,327.84143C295.21045,327.49066,299.26385,320.7463,304.23688,312.86905C312.31732,300.08163,313.1961,298.47864,312.4677,297.6337C312.0619,297.24356,311.68954,296.9686,311.49326,296.9612C311.44376,296.95926,311.40588,296.97272,311.38104,297.0077C311.25998,297.1193,307.15887,303.56888,302.3053,311.3937C297.39478,319.157,293.11707,325.6593,292.81876,325.82236C292.71222,325.90125,292.57803,325.93448,292.4341,325.92908C292.1723,325.91922,291.87762,325.77942,291.66022,325.545C291.26715,325.12076,294.08047,320.26013,300.1721,310.6121C305.14514,302.7335,309.25467,296.0506,309.26575,295.75787C309.27673,295.46765,308.88367,295.04352,308.36508,294.8483C307.82184,294.61758,307.4875,294.48993,307.28162,294.48212C307.0296,294.47256,306.9696,294.6435,306.9552,295.02884C306.9441,295.3215,305.3191,298.1233,303.33472,301.14642C301.34833,304.2265,297.3708,310.50638,294.44965,315.12915C290.63943,321.30396,289.00897,323.5355,288.11545,323.50177C287.88483,323.4931,287.70313,323.334,287.54596,323.05237C287.38214,322.753,290.63293,317.1483,294.7378,310.58142C306.42554,292.02826,305.67242,293.40237,304.8299,292.4937C304.62103,292.2682,304.47565,292.06485,304.26794,292.05695C303.52597,292.02902,301.98846,294.49274,293.92523,307.33768C287.8127,317.06775,284.9646,321.0813,284.09485,321.0484C283.86737,321.03986,283.77515,320.75443,283.79517,320.22214C283.82605,319.4045,289.1847,310.6069,297.32086,297.87982C301.35443,291.6614,301.6726,290.9721,300.82376,290.2389C300.5931,290.04346,300.3839,289.90692,300.1434,289.8978C299.0251,289.85562,297.2232,292.58398,289.3894,305.1791C283.80865,314.12173,281.02243,318.0658,280.13794,318.03244C279.89868,318.02338,279.79846,317.72147,279.82,317.14975C279.84424,316.50745,289.18872,301.19653,296.32776,290.1274C297.19757,288.75717,297.34088,288.06195,296.89142,287.57745C296.66357,287.33203,296.4776,287.13824,296.2358,287.1291C295.22565,287.091,293.2459,290.2795,283.20618,306.40643C280.15686,311.31757,277.3182,315.3017,276.73022,315.39566C276.63745,315.41327,276.54877,315.41983,276.4654,315.41666C276.07333,315.4019,275.8035,315.17276,275.81613,314.8356C275.8293,314.48608,279.26166,308.7126,283.42743,302.0899C287.53467,295.46494,291.6377,288.95673,292.44504,287.70096C293.7541,285.53036,293.82166,285.29794,292.9588,284.91602C292.7067,284.80386,292.44122,284.74628,292.20218,284.7372C291.89655,284.72577,291.63367,284.79184,291.4975,284.919C291.2556,285.14307,287.4665,291.07935,283.05414,298.0427C278.7002,305.00842,274.48495,311.39673,273.7492,312.30267C273.1045,313.09833,272.75552,313.46606,272.5131,313.4569C272.34085,313.45044,272.22275,313.25305,272.09073,312.88443C271.82547,312.17188,273.58508,308.90787,277.80917,302.28732C287.62494,286.87668,289.92773,283.16425,289.75684,283.04086C289.64227,282.97842,289.18866,282.61014,288.6786,282.18158C288.548,282.07083,288.4188,282.00287,288.2752,281.9975C287.54816,281.97,286.4522,283.54703,282.9176,289.2703C270.83777,308.92047,269.40918,311.1458,268.59225,311.115C268.1254,311.09735,267.7863,310.79276,267.79947,310.44202C267.82144,309.85913,275.8699,296.36923,283.2729,284.4919C285.6407,280.6057,285.7033,280.4918,284.6232,279.69168C284.06232,279.2507,283.54187,278.99915,283.3974,278.99368C283.38098,278.99307,283.36914,278.99576,283.3631,279.00162C283.11865,279.2837,272.65335,296.42227,268.60428,303.0506C266.2201,306.9851,264.98267,308.63528,264.1886,308.6053C263.9447,308.59607,263.7423,308.43015,263.56195,308.12024C263.3979,307.82098,267.3389,300.95737,272.31827,292.9034C277.23978,284.84863,281.18082,277.9843,281.01657,277.6851C280.79623,277.3261,280.33823,277.07507,279.9298,277.05966C279.5213,277.04425,275.1241,283.59955,270.20538,291.5969C263.79315,302.01447,260.97897,306.10217,260.11823,306.06973C259.8839,306.0609,259.7943,305.7471,259.81592,305.17282C259.83575,304.64798,263.83527,297.7852,268.6307,289.95935C275.48,278.82114,277.23947,275.5557,276.67133,275.1249C276.2152,274.81586,275.75754,274.56418,275.58243,274.55762C275.40707,274.55096,271.24133,281.17435,266.26172,289.22815C261.28244,297.27948,256.93942,303.95496,256.5847,304.0578C256.434,304.10162,256.30453,304.1239,256.19742,304.11984C254.91791,304.0716,256.8425,300.3944,264.31268,288.21902C269.22943,280.27963,273.11008,273.4706,272.946,273.1732C272.80142,272.9167,272.62857,272.7698,272.405,272.76135C271.27344,272.71866,268.83902,276.23132,262.13016,287.20114C257.33444,295.02692,253.28793,301.5947,253.16672,301.70886C253.12637,301.74576,253.04819,301.7626,252.94229,301.75858C252.7302,301.75055,252.40866,301.65927,252.06436,301.49042C251.25839,301.16934,251.39688,300.58963,253.20639,297.55988C255.8899,293.04437,266.53723,275.73572,268.14914,273.28348L269.32855,271.45734L268.01254,270.70712C267.5933,270.47733,267.19272,270.33484,266.91486,270.32428C266.73743,270.31766,266.61005,270.36478,266.56024,270.4773C266.04254,271.8015,250.11304,297.4431,249.07242,298.6901C248.46451,299.377,248.1387,299.70114,247.9155,299.69275C247.7352,299.68594,247.62186,299.46277,247.48105,299.03937C247.21347,298.385,247.98013,296.6615,249.65472,294.09528C251.08087,291.9267,252.20633,289.9829,252.21072,289.8656C252.21732,289.69025,255.02191,285.06238,258.4452,279.5229C261.87137,273.92413,264.56583,269.11594,264.34344,268.81503C264.19427,268.54037,264.0174,268.38223,263.7865,268.37357C262.66235,268.33112,260.26624,271.83777,253.64645,282.78928C248.90927,290.61914,244.74802,297.12448,244.39346,297.22736C244.23788,297.27097,244.1036,297.29065,243.99063,297.28638C242.77255,297.24042,244.03549,294.3669,248.08139,287.78174C257.48434,272.4718,260.79306,266.86984,260.5663,266.68506C260.45175,266.62268,259.87677,266.36777,259.1853,266.10742C258.9696,266.0312,258.7821,265.98706,258.61224,265.98062C258.05524,265.9596,257.696,266.33743,257.2131,267.26044C256.76938,268.1793,253.46255,273.7232,249.78784,279.72247C246.17407,285.66418,242.62057,291.5494,241.93457,292.69223C241.04984,294.1232,240.27264,294.83472,239.65796,294.81146C239.36432,294.80045,239.10767,294.62125,238.89404,294.2731C238.7298,293.9738,239.4336,292.3653,240.48727,290.7689C241.48297,289.16898,245.46692,282.71503,249.26935,276.4292C254.69257,267.45847,256.01932,264.8192,255.45117,264.38834C254.94672,264.04904,254.57123,263.87097,254.27179,263.8597C253.86041,263.8442,253.59277,264.1433,253.33261,264.77594C252.94492,265.755,245.15198,278.67014,239.36755,287.92047C237.58206,290.8361,236.21902,292.39746,235.58704,292.37363C235.3153,292.3634,235.17871,292.05893,235.20184,291.4451C235.22174,290.91904,239.03503,284.34296,243.64407,276.80145C248.25412,269.26108,252.05399,263.0333,252.05838,262.91724C252.06271,262.7993,251.66306,262.55106,251.20288,262.3575C251.18378,262.3488,251.16266,262.34308,251.13916,262.34216C250.24353,262.30835,246.06439,268.74374,234.65137,287.44946C233.49332,289.3537,232.1705,290.53058,231.56253,290.50766C231.22192,290.49475,231.10529,290.10452,231.36859,289.2549C231.56796,288.61932,235.43964,282.04373,239.92798,274.61563C246.46576,263.9913,248.0391,261.01132,247.41257,260.57837C247.03201,260.32153,246.56592,260.18097,246.21729,260.16782C246.14813,260.16522,246.08344,260.16763,246.02502,260.17532C245.55157,260.3331,232.80533,280.60123,229.73181,286.1539C229.11679,287.21353,228.18588,287.81152,227.5922,287.78918C227.15988,287.77286,226.90637,287.42932,227.08145,286.69635C227.21585,286.23395,230.96191,279.88797,235.38782,272.57382C239.86957,265.3199,243.32144,259.02087,243.15732,258.7234C242.99545,258.3661,242.4791,258.11353,242.12903,258.10028C241.72021,258.08487,237.81473,264.0156,233.39102,271.27167C226.29431,282.92673,224.42783,285.78494,223.44138,285.7477C223.26718,285.74118,223.12064,285.64413,222.97733,285.48965C222.64053,285.12573,225.02777,280.71597,229.94647,272.71985C234.05603,266.03616,237.86093,259.69232,238.42572,258.6618C239.43011,256.82913,239.43011,256.82913,238.08765,256.7785C236.92032,256.73444,235.56354,258.61194,228.40732,270.14862C223.86288,277.5164,219.89426,283.5609,219.60223,283.54996C219.31018,283.5389,219.2113,283.0689,219.40845,282.4908C220.85529,278.2217,222.24591,270.79312,222.35272,266.41342C222.61026,259.5845,221.34601,255.91383,216.98306,250.7225C214.2446,247.40428,206.30484,240.96864,204.90427,240.91577C204.67062,240.90701,202.99994,243.35698,201.25162,246.32979C198.1308,251.58943,195.8768,254.01746,194.12598,253.95137C193.65875,253.9338,192.40805,253.00974,191.34076,251.85948C189.99277,250.40553,189.45102,249.2745,189.50174,247.93205C189.53915,246.93973,189.07126,245.4028,188.45984,244.56221C186.62674,242.03687,187.54688,236.22795,190.0687,234.4525C190.7891,233.95407,191.224,233.26797,191.00565,232.85165C190.76047,232.42374,190.31961,232.2111,189.90396,232.19542C189.39078,232.17606,188.91641,232.45744,188.89578,233.0058C188.84299,234.40627,186.66187,238.00578,184.8428,239.7496C183.69415,240.75806,182.56519,241.24113,181.33987,241.19495C178.30676,241.02235,177.08246,239.39809,175.38132,233.3728C174.92197,231.60115,174.03964,228.64671,173.4639,226.87128L172.41565,223.67612L167.2826,221.84508C154.8284,217.34279,143.18747,214.50685,130.91269,212.99188C126.665436,212.4817,123.82544,211.84767,123.5509,211.3705C122.83856,210.11609,123.34723,202.82925,124.482635,199.0734C126.09009,193.64043,129.53131,187.63286,132.6224,184.71013C136.97589,180.67375,142.45401,178.50336,147.2164,178.68304C148.9466,178.74826,150.58237,179.12294,152.03516,179.83199C153.52872,180.53082,154.96555,181.16936,155.19891,181.17816C155.49103,181.18915,155.21326,179.25,154.65945,176.89166C153.95444,173.88454,153.68063,170.30801,153.7728,164.75908C153.91257,156.4064,153.86288,156.1715,150.19595,144.92899C145.16327,129.60072,141.56229,122.8025,130.04913,107.28857C119.26358,92.62199,110.71509,82.187195,99.54797,69.90119L88.94006,58.280064 Z"/> </g> <g style="fill:rgb(0,0,0); fill-opacity:1.0; stroke-linejoin: miter"> <path d="M129.93744,429.4821C126.20738,430.69824,122.36741,433.76794,117.20018,439.63577C114.93569,442.2099,112.093575,445.00842,110.85058,445.87674C108.78914,447.30362,108.21228,447.3988,104.61935,446.71017C102.4573,446.30905,98.79208,445.2537,96.45477,444.43094C88.58831,441.57947,74.04799,437.8853,57.648903,434.47104C27.947134,428.27292,30.493532,429.07355,27.737059,425.26556C24.72614,421.06012,13.513116,407.57297,10.661976,404.70374C7.400726,401.35724,4.5168257,400.44598,-2.901433,400.39844C-6.3750854,400.3657,-14.497862,400.2799,-20.950054,400.27472C-27.375746,400.218,-33.516956,400.3748,-34.593597,400.67072C-37.97952,401.60645,-41.42709,404.6814,-43.56068,408.7734L-45.50445,412.50146L-52.428207,411.0001C-56.25327,410.12506,-60.989815,409.10355,-62.969704,408.73193L-66.53601,407.99155L-68.93205,412.20865C-71.30147,416.37408,-71.32832,416.4257,-70.00255,416.78806C-60.17028,419.28015,-49.252594,422.46945,-49.128582,422.8631C-49.054386,423.09973,-50.853973,429.07733,-53.141525,436.1177C-55.456436,443.21054,-57.797573,450.3538,-58.272823,452.14948C-59.711887,456.93094,-61.64357,458.3616,-68.77495,459.91162C-75.33078,461.36758,-82.8743,462.57184,-90.648384,463.45938L-96.091606,464.04572L-105.78567,482.63803C-111.13211,492.8921,-115.35124,501.36298,-115.19592,501.44397C-114.677795,501.714,-108.15584,500.70062,-84.50025,496.7663C-81.33004,496.2448,-71.58278,494.47815,-62.82956,492.84955C-54.1037,491.27347,-45.902893,489.81955,-44.698326,489.65726C-43.41557,489.4705,-40.718494,489.0981,-38.676178,488.8445C-36.60716,488.54056,-33.507626,487.5225,-31.716084,486.61264C-26.101128,483.6766,-25.217016,482.35916,-15.661139,462.6425C-10.9784975,453.02936,-7.1580896,444.94434,-7.153344,444.68326C-7.2344294,443.32248,-4.8124533,442.2145,-1.993948,442.36697C0.6149782,442.5426,2.0426388,443.08908,7.559768,445.89868L14.033234,449.27408L14.0134735,454.99637C14.039755,458.1043,14.218359,461.42532,14.439344,462.26523C14.928586,464.23196,17.981577,465.95627,20.881216,465.9531C22.709568,465.9837,22.999783,465.80606,23.764582,463.834L24.610567,461.70627L26.837332,462.86743C29.737488,464.37955,31.392513,463.85837,32.51256,460.95242C33.551773,458.2008,33.82629,448.19998,32.92479,444.37097L32.293724,441.53888L46.009468,444.54083C71.3071,450.09042,85.68686,452.45038,94.95753,452.60797C103.65511,452.72873,107.90123,453.4278,108.91942,455.0122C109.43028,455.67453,110.92415,460.01025,112.2313,464.57764C114.5774,472.5843,118.027954,480.11475,119.89256,481.0869C121.44621,481.89697,125.47332,481.62604,129.25517,480.4367C136.29282,478.3081,142.18732,472.68842,145.26485,465.26974C146.73438,461.8198,148.07436,455.20676,147.65483,453.73782C147.5314,453.34314,147.59447,452.71674,147.7836,452.354C148.26924,451.42255,147.735,447.52023,146.80417,445.39005C146.37663,444.44095,145.5788,442.18118,144.98409,440.29056C144.36197,438.45102,143.42496,436.71094,142.85536,436.41397C142.33762,436.14392,141.97958,435.6938,142.11446,435.43515C142.43834,434.8139,138.34229,431.42667,135.28677,429.8335C133.11179,428.69943,132.45885,428.68802,129.93744,429.4821 Z"/> </g> <g style="fill:rgb(0,0,0); fill-opacity:1.0; stroke-linejoin: miter"> <path d="M453.12463,514.48425L453.04608,514.83875L453.08307,514.83887C454.07208,515.33435,454.71967,515.626,454.85297,515.62646C454.90497,515.6267,454.8797,515.58386,454.76727,515.49036C454.5116,515.28784,453.92194,514.9242,453.16187,514.4844 Z"/> </g> <g style="fill:rgb(0,0,0); fill-opacity:1.0; stroke-linejoin: miter"> <path d="M397.21112,357.9498C397.36267,357.69116,397.92267,357.22394,398.90198,356.53278C399.82776,355.8959,400.59296,355.4384,400.64453,355.46533C400.74762,355.519,400.25922,356.5818,399.58417,357.87622C398.77405,359.4299,398.34955,359.86713,398.30817,359.18704C398.34418,358.6128,398.03796,358.19,397.64563,358.183C397.2622,358.23154,397.10938,358.16895,397.1917,357.9871 Z M387.82657,363.11484L388.08408,363.3293L388.10355,363.29208C388.94498,362.83286,390.14468,362.128,391.48087,361.2919C394.14844,359.58688,396.70282,358.34998,397.19556,358.54105C397.67944,358.70377,397.96478,358.7766,397.85193,358.99307C397.71582,359.25412,397.00018,359.72314,395.35425,360.80826C394.13092,361.62027,393.51825,362.06534,393.37018,362.34946C393.2624,362.55594,393.40002,362.6772,393.72723,362.79242C394.22003,362.9835,395.11255,362.79,395.6411,362.40738C396.0031,362.19156,396.2116,362.04282,396.25977,361.95047C396.31354,361.84723,396.16638,361.8139,395.80817,361.83554C395.39868,361.86707,395.23846,361.77332,395.34766,361.5641C395.385,361.4923,395.45343,361.40668,395.5548,361.3083C395.9265,360.97495,396.42426,360.90524,396.70856,361.1192C396.9109,361.3112,397.0957,361.2668,397.216,361.03583C397.2788,360.91553,397.3236,360.7441,397.34497,360.52917C397.3789,360.27707,397.4182,360.10034,397.46887,360.00314C397.5542,359.83948,397.67065,359.8993,397.84662,360.19794C398.10144,360.59427,399.28595,360.09225,401.0044,358.8143C402.0432,358.03537,402.59985,357.5454,402.69446,357.36407C402.82642,357.111,402.06085,357.45883,400.4626,358.46628C399.7923,358.8775,399.6562,358.78598,400.1325,357.87234C400.27478,357.5994,400.471,357.2525,400.72485,356.82462C401.39972,355.5298,402.3615,354.3186,402.75793,354.06393C403.0219,353.89423,403.193,353.7344,403.24695,353.63113C403.27386,353.57928,403.27246,353.5419,403.23737,353.52362C402.92725,353.362,391.33426,360.65652,387.84598,363.07755 Z"/> </g> <g style="fill:rgb(0,0,0); fill-opacity:1.0; stroke-linejoin: miter"> <path d="M392.80984,355.3323C393.22418,355.54834,410.47736,344.05954,410.35254,343.66528C410.33075,343.4559,409.14603,343.9584,407.7737,344.82346C403.23114,347.72412,392.5502,355.19696,392.80984,355.3323 Z"/> </g> <g style="fill:rgb(0,0,0); fill-opacity:1.0; stroke-linejoin: miter"> <path d="M399.0551,349.0378C399.52832,348.889,403.82916,346.32336,408.60825,343.34848C413.41333,340.32126,417.4479,338.14316,417.54715,338.4583C417.69876,338.8008,417.75272,338.69757,417.73343,338.22653C417.74106,337.835,418.37674,337.2441,419.1661,336.9972C423.15714,335.78494,446.99405,319.62677,447.2048,317.95865C447.29324,317.41193,447.4799,317.17972,447.55185,317.54678C447.70255,317.88882,449.7297,316.9039,452.15906,315.40433C454.50873,313.92892,456.41345,312.5507,456.3645,312.3933C456.19092,311.84152,437.42178,321.816,435.7501,323.38098C434.79312,324.33154,433.57425,325.2766,433.1032,325.42612C432.49738,325.70322,432.38934,325.91043,432.8037,326.1264C433.11484,326.28864,432.02698,327.23642,430.46936,328.20273C428.83344,329.19382,427.48444,330.13712,427.43042,330.24066C427.32233,330.44778,408.64804,342.51306,407.6743,342.99316C406.1733,343.7256,398.29474,349.23434,399.0551,349.0378 Z M446.62595,318.184C447.09274,318.42743,444.84985,319.6949,443.54047,319.93414C442.649,320.12802,442.83557,319.896,444.36462,319.11234C445.44403,318.55518,446.47134,318.1034,446.62595,318.184 Z"/> </g> <g style="fill:rgb(0,0,0); fill-opacity:1.0; stroke-linejoin: miter"> <path d="M402.79132,355.22668C402.78027,355.2478,402.77905,355.26083,402.78894,355.2659C402.89294,355.3202,405.85104,353.4373,409.3648,351.1201C412.826,348.77475,415.7568,346.94397,415.75546,347.07495C415.75693,347.0827,415.75473,347.0951,415.74655,347.11066C415.6017,347.3882,413.79495,348.7766,411.4937,350.3196C406.55057,353.72925,404.22906,355.4579,403.9254,355.97308L403.90594,356.01035C403.84406,356.14813,403.96875,356.17337,404.2644,356.10098C404.84055,356.00632,408.8558,353.35764,413.11536,350.24316C418.66434,346.20587,421.0637,344.44843,421.18198,344.22168C421.25162,344.08823,420.5358,344.48267,419.20767,345.25214C417.8353,346.11725,416.59933,346.5926,416.57736,346.38358C416.5648,346.34604,416.57614,346.2976,416.6064,346.2396C416.7678,345.93027,417.48972,345.3551,418.38028,344.82077C426.77124,339.845,443.95087,327.17984,444.88947,325.37958C444.94263,325.27762,444.94385,325.21072,444.888,325.18164C444.68103,325.07367,427.2605,335.61877,427.09845,335.92972C427.04437,336.03333,424.53503,337.68918,421.5233,339.67502C418.72244,341.49146,416.40366,343.26822,416.12418,343.8043C416.10587,343.8394,416.09714,343.8694,416.09702,343.89365C416.1111,344.02197,416.08493,344.14145,416.03012,344.2466C415.90512,344.48633,415.62674,344.6514,415.29965,344.66376C414.75046,344.7066,414.0369,345.1907,413.60968,345.75854C412.75336,346.89304,409.30542,349.96924,405.2568,353.06168C403.93646,354.1049,402.89697,355.024,402.79132,355.22668 Z"/> </g> <g style="fill:rgb(0,0,0); fill-opacity:1.0; stroke-linejoin: miter"> <path d="M420.5892,331.6135C421.87906,331.03476,423.7723,330.30902,424.71747,330.0119C425.662,329.7137,427.53162,328.9105,428.90015,328.30658C431.00708,327.29733,431.13965,327.16855,429.83246,327.27765C429.02112,327.31552,428.33936,327.48697,428.41534,327.5924C428.46533,327.75055,427.5689,328.20517,426.36108,328.62943C425.2306,329.02777,422.88736,330.1114,421.2258,331.02347C418.93246,332.26483,418.77292,332.44495,420.5892,331.6135 Z"/> </g> <g style="fill:rgb(0,0,0); fill-opacity:1.0; stroke-linejoin: miter"> <path d="M427.11566,324.14844C428.1126,323.8777,441.33798,317.3366,447.18857,314.3274C449.56143,313.06168,452.9082,311.31558,454.67273,310.45728C456.38593,309.57233,457.65283,308.78375,457.5498,308.73004C457.39526,308.64944,455.97412,309.226,454.36658,310.03412C452.83728,310.8178,451.41986,311.26443,451.2669,311.05252C451.1138,310.841,450.85007,310.96732,450.66098,311.32977C450.47202,311.69217,445.30304,314.52997,439.1899,317.6658C428.20355,323.2007,425.46033,324.66873,427.11566,324.14844 Z"/> </g> <g style="fill:rgb(0,0,0); fill-opacity:1.0; stroke-linejoin: miter"> <path d="M433.5132,330.44803C433.72147,330.5566,438.39053,327.78778,444.96362,323.7722C449.89993,320.74713,466.36215,309.7681,466.3121,309.6101C466.23746,309.37357,457.3413,314.81277,444.79767,322.82886C435.52744,328.73193,433.20206,330.28586,433.5132,330.44803 Z"/> </g> <g style="fill:rgb(0,0,0); fill-opacity:1.0; stroke-linejoin: miter"> <path d="M429.2564,347.32974C429.77472,347.60007,455.84015,321.73657,455.6419,321.10645C455.61902,320.89658,454.61304,321.6895,453.46973,322.87183C452.3534,324.0024,446.8248,329.55075,441.16623,335.0972C428.59906,347.58005,428.99768,347.19495,429.2564,347.32974 Z"/> </g> <g style="fill:rgb(0,0,0); fill-opacity:1.0; stroke-linejoin: miter"> <path d="M426.32294,356.99753C427.1985,356.2031,428.13074,355.17413,428.34692,354.75964C428.56268,354.34564,428.00867,354.64944,427.13287,355.4441C426.25702,356.239,425.32605,357.2684,425.11,357.68286C424.89386,358.09705,425.44696,357.79276,426.32294,356.99753 Z"/> </g> <g style="fill:rgb(0,0,0); fill-opacity:1.0; stroke-linejoin: miter"> <path d="M429.77814,353.5302C430.253,353.2507,430.8379,352.63367,431.05408,352.2195C431.3241,351.7014,431.1147,351.72385,430.45325,352.23547C429.10284,353.30978,428.67078,354.13858,429.77814,353.5302 Z"/> </g> <g style="fill:rgb(0,0,0); fill-opacity:1.0; stroke-linejoin: miter"> <path d="M453.11554,312.93872C453.221,312.86215,453.9334,312.50916,454.6446,312.15527C455.88312,311.54962,455.88312,311.54962,454.65106,311.7634C453.9953,311.88254,453.28497,312.2369,453.12292,312.54755C452.961,312.85828,452.9585,312.9887,453.11554,312.93872 Z"/> </g> <g style="fill:rgb(0,0,0); fill-opacity:1.0; stroke-linejoin: miter"> <path d="M517.19556,294.79333C517.2344,294.71906,517.3029,294.65973,517.40265,294.6206C517.6111,294.59772,518.04846,295.02368,518.40356,295.60394C518.69495,296.02875,518.8206,296.26117,518.77686,296.34497C518.7362,296.42316,518.54913,296.37268,518.21094,296.22784C517.48206,295.84784,517.0094,295.15057,517.19556,294.79333 Z"/> </g> <g style="fill:rgb(0,0,0); fill-opacity:1.0; stroke-linejoin: miter"> <path d="M486.59207,292.19073L488.50986,291.54395C489.5887,291.1186,491.76022,290.86755,493.40646,290.8697C495.0518,290.87115,498.53458,290.38226,501.18454,289.72162C506.3782,288.4776,506.56082,288.50696,511.85587,291.9922C513.8169,293.32086,514.6693,294.24683,514.44806,294.67126C514.2409,295.06842,513.09265,295.0254,511.0306,294.46002C508.32663,293.70892,505.45303,293.65982,500.2939,294.46082C499.06296,294.67517,498.57034,294.4839,497.9838,293.58527C496.8101,291.9198,494.89883,292.17474,492.9055,294.2309C491.09726,296.05493,491.38425,296.1383,487.85556,293.17883L486.59207,292.19073 Z M464.64816,291.8922C464.20212,292.7478,464.3137,293.60815,464.84036,294.7472C465.8477,296.98502,469.37387,298.56015,471.21695,297.67676C472.2974,297.12027,472.40146,297.17453,472.6102,298.6667C472.70047,299.5043,473.10428,300.3738,473.41544,300.53607C473.77707,300.7246,475.13455,302.2885,476.4637,304.03516L478.86557,307.26355L477.20425,309.69083C476.7532,310.37402,476.43106,310.86893,476.23062,311.25354C475.74045,312.1935,475.96786,312.4735,476.75217,313.2095C477.70547,314.0356,477.77512,314.53323,477.0729,315.87964C475.6149,318.67593,474.98404,323.55075,475.6036,327.03513C475.95755,329.262,475.87552,331.06345,475.2789,332.33304C474.49094,334.0956,474.5386,334.38385,475.85483,335.2678C476.65738,335.7521,478.1227,337.10876,479.0989,338.14505C480.5593,339.76285,480.78555,340.34158,480.24557,341.3775C479.1655,343.44897,479.45572,346.30066,480.89267,347.84048C482.84305,349.91107,483.36392,350.05103,486.30045,349.34268L488.94992,348.6826L493.5698,353.59424C498.1638,358.4266,498.18845,358.50516,497.6061,360.50696C495.36923,367.57397,496.00266,370.2754,500.4047,372.5705C503.25278,374.05557,504.56357,373.81665,506.74576,371.3978C508.05142,369.90475,508.65707,369.6278,509.17026,370.15918C509.50345,370.53046,510.27402,371.32733,510.8671,371.8341C511.66348,372.57874,511.75864,373.1554,511.19168,374.24274C510.19266,376.15887,510.8492,379.06998,512.6453,380.92877C513.8522,382.1507,514.55194,382.44977,516.4054,382.55994C517.6592,382.5551,518.83905,382.31342,519.0278,381.95123C519.271,381.48495,520.6628,382.60617,523.74304,385.7928C527.7748,389.9368,530.03265,392.29984,539.3445,402.35855C542.19147,405.48965,555.04785,419.1089,566.4682,431.18906C568.9321,433.79083,571.0035,436.3859,571.0705,437.01346C571.35626,438.6118,572.61804,438.21548,579.2905,434.51495C593.3199,426.68054,607.4162,413.41434,613.3245,402.4652C613.61237,401.92908,613.8601,401.46735,614.0691,401.06683C615.32275,398.66248,615.1759,398.48123,614.13293,397.88095C613.0203,397.2347,592.2852,375.35788,588.85516,371.19833L587.62506,369.76672L590.5067,370.8083C598.06305,373.49615,604.0247,373.17978,607.92126,369.87634C612.6901,365.90793,614.2233,364.86282,618.27985,362.894C624.9703,359.6641,644.1091,354.0328,662.2552,349.9257C665.8957,349.1076,669.89307,348.19635,673.68915,347.32297L673.68915,347.32297L694.271,305.6915L694.271,305.6915L675.9954,296.16272L668.62445,299.43338C664.5977,301.2199,656.36206,304.76392,650.4137,307.32718C644.44183,309.81186,636.5472,313.2046,632.8108,314.8137C616.362,321.97916,602.7272,320.33682,578.7659,308.43604C571.202,304.62393,568.2276,302.87592,563.42896,299.32028C553.0076,291.51477,552.1031,290.9776,543.07666,287.19327C538.303,285.23114,529.0783,280.81677,522.605,277.44174C513.8523,272.87817,510.275,271.27637,508.76114,271.14563C507.64072,271.0224,504.757,271.62653,502.366,272.4218C499.94894,273.26953,494.88394,274.64633,491.1334,275.52292C482.39755,277.62085,480.31778,278.57828,475.27652,283.195C472.9432,285.2718,469.76413,287.82983,468.1002,288.87238C466.2142,290.0888,465.11978,290.9876,464.64816,291.8922 Z"/> </g> <g style="fill:rgb(0,0,0); fill-opacity:1.0; stroke-linejoin: miter"> <path d="M436.35422,347.73746C436.66544,347.89972,442.38275,341.98886,442.79028,341.0818C442.9795,340.7191,441.73355,341.71616,440.0076,343.38492C436.95322,346.3372,435.93997,347.52145,436.35422,347.73746 Z"/> </g> <g style="fill:rgb(0,0,0); fill-opacity:1.0; stroke-linejoin: miter"> <path d="M440.26846,341.87424C445.8909,336.9017,459.9808,322.51233,459.8071,321.96066C459.60785,321.32986,440.50217,340.41522,439.84915,341.91913C439.68723,342.2297,439.89774,342.20782,440.26846,341.87424 Z"/> </g> <g style="fill:rgb(0,0,0); fill-opacity:1.0; stroke-linejoin: miter"> <path d="M455.99146,311.2111C456.35425,311.40015,469.6851,304.78217,469.92813,304.31607C470.11722,303.9533,468.64304,304.634,459.13202,309.35742C457.26196,310.29242,455.8885,311.15732,455.99146,311.2111 Z"/> </g> <g style="fill:rgb(0,0,0); fill-opacity:1.0; stroke-linejoin: miter"> <path d="M457.12354,320.0346C458.47278,318.9596,458.90466,318.13113,457.79865,318.7398C457.32288,319.0187,456.7378,319.63556,456.52173,320.05008C456.2517,320.5678,456.46118,320.5453,457.12354,320.0346 Z"/> </g> <g style="fill:rgb(0,0,0); fill-opacity:1.0; stroke-linejoin: miter"> <path d="M461.5906,318.41177C466.0544,314.02048,469.1689,310.57285,467.23483,312.13342C465.75302,313.33673,457.59076,321.6616,457.3736,322.20657C457.2384,322.46573,459.17407,320.77408,461.5906,318.41177 Z"/> </g> <g style="fill:rgb(0,0,0); fill-opacity:1.0; stroke-linejoin: miter"> <path d="M329.0513,627.9109Q270.7278,629.1249,237.3566,686.5384Q202.52608,746.9476,185.3627,876.67395L463.86438,881.1801Q464.50916,877.6025,457.0053,815.155Q453.14752,785.4737,448.4475,762.7922Q439.13422,717.6108,424.17432,689.55334Q391.95178,630.3062,329.38718,627.91144"/> </g> </g> </svg>