<?xml version="1.0" encoding="UTF-8" standalone="no"?>
<svg
   xmlns:dc="http://purl.org/dc/elements/1.1/"
   xmlns:cc="http://creativecommons.org/ns#"
   xmlns:rdf="http://www.w3.org/1999/02/22-rdf-syntax-ns#"
   xmlns:svg="http://www.w3.org/2000/svg"
   xmlns="http://www.w3.org/2000/svg"
   xmlns:sodipodi="http://sodipodi.sourceforge.net/DTD/sodipodi-0.dtd"
   xmlns:inkscape="http://www.inkscape.org/namespaces/inkscape"
   viewBox="0 0 30 30"
   version="1.1"
   id="svg4"
   sodipodi:docname="icons8-facebook (1).svg"
   inkscape:export-filename="C:\Users\lexle\Desktop\icons8-facebook (1).png"
   inkscape:export-xdpi="57.599998"
   inkscape:export-ydpi="57.599998"
   inkscape:version="0.92.4 (5da689c313, 2019-01-14)">
  <metadata
     id="metadata10">
    <rdf:RDF>
      <cc:Work
         rdf:about="">
        <dc:format>image/svg+xml</dc:format>
        <dc:type
           rdf:resource="http://purl.org/dc/dcmitype/StillImage" />
      </cc:Work>
    </rdf:RDF>
  </metadata>
  <defs
     id="defs8" />
  <sodipodi:namedview
     pagecolor="#ffffff"
     bordercolor="#666666"
     borderopacity="1"
     objecttolerance="10"
     gridtolerance="10"
     guidetolerance="10"
     inkscape:pageopacity="0"
     inkscape:pageshadow="2"
     inkscape:window-width="1366"
     inkscape:window-height="705"
     id="namedview6"
     showgrid="false"
     inkscape:zoom="7.8666667"
     inkscape:cx="38.072034"
     inkscape:cy="15"
     inkscape:window-x="-8"
     inkscape:window-y="-8"
     inkscape:window-maximized="1"
     inkscape:current-layer="svg4" />
  <g
     id="g3719"
     transform="matrix(1.2648305,0,0,1.2648305,-0.02019894,0.01346596)">
    <path
      style="fill:#0a9ad1;"
       inkscape:connector-curvature="0"
       id="path2"
       d="m 12.076271,-0.05084746 c -6.6269998,0 -11.99999981,5.37299996 -11.99999981,12.00000046 0,6.016 4.43200001,10.984 10.20599981,11.852 v -8.672 H 7.3132712 v -3.154 H 10.282271 V 9.8761525 c 0,-3.475 1.693,-5 4.581,-5 1.383,0 2.115,0.103 2.461,0.149 v 2.753 h -1.97 c -1.226,0 -1.654,1.163 -1.654,2.4730005 v 1.724 h 3.593 l -0.487,3.154 h -3.106 v 8.697 c 5.857,-0.794 10.376,-5.802 10.376,-11.877 0,-6.6270005 -5.373,-12.00000046 -12,-12.00000046 z" />
  </g>
</svg>
