<?xml version="1.0" encoding="utf-8"?>
<!-- Generator: Adobe Illustrator 23.0.3, SVG Export Plug-In . SVG Version: 6.00 Build 0)  -->
<svg version="1.1" id="Layer_2" xmlns="http://www.w3.org/2000/svg" xmlns:xlink="http://www.w3.org/1999/xlink" x="0px" y="0px"
	 viewBox="0 0 595.3 510.2" style="enable-background:new 0 0 595.3 510.2;" xml:space="preserve">
<path style="fill:#ffffff;" d="M252.2,349h8.4V69.2c-2.8,0.6-5.7,1.3-8.4,2V349z"/>
<path style="fill:#ffffff;" d="M422,400.6c-33.1,27.8-75.7,44.6-122.1,44.6c-104.8,0-190-85.2-190-190c0-88.3,60.6-162.8,142.4-184c2.8-0.7,5.6-1.4,8.4-2
	c12.7-2.7,25.8-4.1,39.2-4.1c6.9,0,13.8,0.4,20.5,1.1l4-9.6c-8-1-16.2-1.5-24.5-1.5c-110.3,0-200,89.7-200,200s89.7,200,200,200
	c49.1,0,94-17.8,128.9-47.2C426.7,405.7,424.4,403.2,422,400.6z"/>
<rect style="fill:#ffffff;" x="279.8" y="168.7" width="5.7" height="66.8"/>
<polygon style="fill:#ffffff;" points="357.1,341.9 357.1,280.7 351.4,280.7 351.4,347.6 353.4,347.6 357.1,347.6 382.8,347.6 382.8,341.9 "/>
<polygon style="fill:#ffffff;" points="427,174.4 427,168.7 395.7,168.7 391.9,168.7 390.1,168.7 390.1,235.6 391.9,235.6 395.7,235.6 427,235.6 
	427,229.9 395.7,229.9 395.7,202.7 427,202.7 427,197 395.7,197 395.7,174.4 "/>
<polygon style="fill:#ffffff;" points="366.5,177.6 366.5,177.6 366.5,177.6 365.3,168.7 359.7,168.7 360.8,177.6 337.5,229.3 314.2,177.6 315.3,168.7 
	309.7,168.7 308.5,177.6 308.5,177.6 308.5,177.6 301.2,235.6 306.8,235.6 313,187.4 334.7,235.6 334.7,235.6 340.3,235.6 
	340.3,235.6 362,187.4 368.2,235.6 373.8,235.6 "/>
<path style="fill:#ffffff;" d="M459.6,204h10c6.6,0,12-5.4,12-12v-11.3c0-6.6-5.4-12-12-12h-22.3h-5.7v6V198v6v31.6h5.7V204h5.2l24,31.6h7.1L459.6,204z
	 M447.3,198v-23.3h22.3c3.3,0,6,2.7,6,6V192c0,3.3-2.7,6-6,6H455H447.3z"/>
<path style="fill:#ffffff;" d="M313.6,342.3c-15.5,0-28.2-12.6-28.2-28.2s12.6-28.2,28.2-28.2c9.8,0,18.5,5.1,23.5,12.7l5-5c-6.4-8.9-16.8-14.6-28.6-14.6
	c-19.4,0-35.2,15.8-35.2,35.2s15.8,35.2,35.2,35.2c11,0,20.9-5.1,27.3-13l-5-5C330.8,338,322.7,342.3,313.6,342.3z"/>
<path style="fill:#ffffff;" d="M425.5,329.2c0,6.3-5.1,11.4-11.4,11.4h-5.6c-6.3,0-11.4-5.1-11.4-11.4v-48.4h-7v48.4c0,10.1,8.3,18.4,18.4,18.4h5.6
	c10.1,0,18.4-8.3,18.4-18.4v-48.4h-7V329.2z"/>
<path  style="fill:#ffffff;" d="M474.4,310.9c2.6-2.7,4.3-6.4,4.3-10.5v-4.6c0-8.3-6.8-15.1-15.1-15.1H448h-5.7v5.7v23.3v5.8v26.3v5.7h5.7h20.5
	c8.3,0,15.1-6.8,15.1-15.1v-7.6C483.6,318.6,479.8,313.3,474.4,310.9z M448,286.5h15.6c5.2,0,9.4,4.2,9.4,9.4v4.6
	c0,4.8-3.6,8.7-8.2,9.3H448V286.5z M477.9,332.5c0,5.2-4.2,9.4-9.4,9.4H448v-26.3h15.6c0.5,0,1,0,1.5-0.1h3.4c5.2,0,9.4,4.2,9.4,9.4
	V332.5z"/>
</svg>
